<mxfile host="65bd71144e">
    <diagram id="K_BUTR0TAQ0R-rDa8sVM" name="Page-1">
        <mxGraphModel dx="878" dy="623" grid="1" gridSize="10" guides="1" tooltips="1" connect="1" arrows="1" fold="1" page="1" pageScale="1" pageWidth="827" pageHeight="1169" math="0" shadow="0">
            <root>
                <mxCell id="0"/>
                <mxCell id="1" parent="0"/>
                <mxCell id="2" value="&lt;div&gt;&lt;span&gt;&lt;font color=&quot;#ff0000&quot;&gt;Client&lt;/font&gt;&lt;/span&gt;&lt;/div&gt;" style="rounded=0;whiteSpace=wrap;html=1;align=left;verticalAlign=top;strokeColor=#FF0000;" vertex="1" parent="1">
                    <mxGeometry x="30" y="90" width="120" height="340" as="geometry"/>
                </mxCell>
                <mxCell id="3" value="&lt;div&gt;&lt;span&gt;&lt;font color=&quot;#000099&quot;&gt;Hub&lt;/font&gt;&lt;/span&gt;&lt;/div&gt;" style="rounded=0;whiteSpace=wrap;html=1;align=left;verticalAlign=top;strokeColor=#000099;" vertex="1" parent="1">
                    <mxGeometry x="230" y="90" width="340" height="340" as="geometry"/>
                </mxCell>
                <mxCell id="4" value="&lt;div&gt;&lt;span&gt;&lt;font color=&quot;#006600&quot;&gt;RM 02&lt;/font&gt;&lt;/span&gt;&lt;/div&gt;" style="rounded=0;whiteSpace=wrap;html=1;align=left;verticalAlign=top;strokeColor=#006600;" vertex="1" parent="1">
                    <mxGeometry x="650" y="280" width="120" height="150" as="geometry"/>
                </mxCell>
                <mxCell id="5" value="&lt;div&gt;&lt;span&gt;&lt;font color=&quot;#006600&quot;&gt;RM 01&lt;/font&gt;&lt;/span&gt;&lt;/div&gt;" style="rounded=0;whiteSpace=wrap;html=1;align=left;verticalAlign=top;strokeColor=#006600;" vertex="1" parent="1">
                    <mxGeometry x="650" y="90" width="120" height="150" as="geometry"/>
                </mxCell>
                <mxCell id="8" value="MQTT Broaker" style="rounded=1;whiteSpace=wrap;html=1;align=left;verticalAlign=top;arcSize=9;" vertex="1" parent="1">
                    <mxGeometry x="420" y="100" width="130" height="310" as="geometry"/>
                </mxCell>
                <mxCell id="9" value="/btt/sensorData" style="ellipse;whiteSpace=wrap;html=1;aspect=fixed;" vertex="1" parent="1">
                    <mxGeometry x="450" y="150" width="90" height="90" as="geometry"/>
                </mxCell>
                <mxCell id="10" value="publish Data" style="shape=flexArrow;endArrow=classic;html=1;entryX=1.031;entryY=0.391;entryDx=0;entryDy=0;entryPerimeter=0;exitX=-0.027;exitY=0.432;exitDx=0;exitDy=0;exitPerimeter=0;" edge="1" parent="1" source="5" target="9">
                    <mxGeometry width="50" height="50" relative="1" as="geometry">
                        <mxPoint x="610" y="170" as="sourcePoint"/>
                        <mxPoint x="660" y="120" as="targetPoint"/>
                    </mxGeometry>
                </mxCell>
                <mxCell id="12" value="publish Data" style="shape=flexArrow;endArrow=classic;html=1;exitX=0;exitY=0.5;exitDx=0;exitDy=0;entryX=1;entryY=1;entryDx=0;entryDy=0;strokeColor=default;" edge="1" parent="1" source="4" target="9">
                    <mxGeometry width="50" height="50" relative="1" as="geometry">
                        <mxPoint x="440" y="270" as="sourcePoint"/>
                        <mxPoint x="490" y="220" as="targetPoint"/>
                    </mxGeometry>
                </mxCell>
                <mxCell id="13" value="scan.py" style="shape=note;whiteSpace=wrap;html=1;backgroundOutline=1;darkOpacity=0.05;" vertex="1" parent="1">
                    <mxGeometry x="670" y="120" width="80" height="70" as="geometry"/>
                </mxCell>
                <mxCell id="14" value="scan.py" style="shape=note;whiteSpace=wrap;html=1;backgroundOutline=1;darkOpacity=0.05;" vertex="1" parent="1">
                    <mxGeometry x="670" y="310" width="80" height="70" as="geometry"/>
                </mxCell>
                <mxCell id="15" value="react App" style="shape=note;whiteSpace=wrap;html=1;backgroundOutline=1;darkOpacity=0.05;" vertex="1" parent="1">
                    <mxGeometry x="50" y="130" width="80" height="100" as="geometry"/>
                </mxCell>
                <mxCell id="16" value="Express&lt;br&gt;Server" style="shape=note;whiteSpace=wrap;html=1;backgroundOutline=1;darkOpacity=0.05;" vertex="1" parent="1">
                    <mxGeometry x="270" y="130" width="80" height="100" as="geometry"/>
                </mxCell>
                <mxCell id="17" value="req" style="endArrow=classic;html=1;exitX=1;exitY=0.4;exitDx=0;exitDy=0;exitPerimeter=0;entryX=-0.01;entryY=0.352;entryDx=0;entryDy=0;entryPerimeter=0;" edge="1" parent="1" source="15" target="16">
                    <mxGeometry width="50" height="50" relative="1" as="geometry">
                        <mxPoint x="250" y="260" as="sourcePoint"/>
                        <mxPoint x="300" y="210" as="targetPoint"/>
                    </mxGeometry>
                </mxCell>
                <mxCell id="18" value="res" style="endArrow=classic;html=1;exitX=0.02;exitY=0.64;exitDx=0;exitDy=0;exitPerimeter=0;entryX=1.02;entryY=0.768;entryDx=0;entryDy=0;entryPerimeter=0;" edge="1" parent="1" source="16" target="15">
                    <mxGeometry width="50" height="50" relative="1" as="geometry">
                        <mxPoint x="250" y="260" as="sourcePoint"/>
                        <mxPoint x="300" y="210" as="targetPoint"/>
                    </mxGeometry>
                </mxCell>
                <mxCell id="19" value="subscribe" style="shape=flexArrow;endArrow=classic;html=1;exitX=0;exitY=0;exitDx=80;exitDy=65;exitPerimeter=0;entryX=0;entryY=0.5;entryDx=0;entryDy=0;dashed=1;" edge="1" parent="1" source="16" target="9">
                    <mxGeometry width="50" height="50" relative="1" as="geometry">
                        <mxPoint x="380" y="210" as="sourcePoint"/>
                        <mxPoint x="430" y="160" as="targetPoint"/>
                    </mxGeometry>
                </mxCell>
                <mxCell id="22" value="config req" style="edgeStyle=orthogonalEdgeStyle;html=1;exitX=0;exitY=0.75;exitDx=0;exitDy=0;entryX=1;entryY=0.5;entryDx=0;entryDy=0;fontColor=#F0F0F0;strokeColor=default;" edge="1" parent="1" source="20" target="4">
                    <mxGeometry relative="1" as="geometry"/>
                </mxCell>
                <mxCell id="20" value="" style="shape=actor;whiteSpace=wrap;html=1;" vertex="1" parent="1">
                    <mxGeometry x="910" y="210" width="40" height="60" as="geometry"/>
                </mxCell>
                <mxCell id="21" value="config req" style="endArrow=classic;html=1;fontColor=#F0F0F0;exitX=0;exitY=0.75;exitDx=0;exitDy=0;entryX=1;entryY=0.5;entryDx=0;entryDy=0;edgeStyle=orthogonalEdgeStyle;" edge="1" parent="1" source="20" target="5">
                    <mxGeometry width="50" height="50" relative="1" as="geometry">
                        <mxPoint x="780" y="540" as="sourcePoint"/>
                        <mxPoint x="830" y="490" as="targetPoint"/>
                    </mxGeometry>
                </mxCell>
            </root>
        </mxGraphModel>
    </diagram>
</mxfile>